# xmcd
#
# Track frame offsets:
#	183
#	42000
#	71830
#	109175
#	142820
#	179033
#	213338
#	248203
#
# Disc length: 3771 seconds
#
# Revision: 0
# Processed by: cddbd v1.5PL3 Copyright (c) Steve Scherf et al.
# Submitted via: dBpowerAMP V4.0
#
DISCID=740eb908
DTITLE=Various Artist - Convite para Ouvir Samba Bom
DYEAR=1900
DGENRE=Samba
TTITLE0=Vai Passar - Apesar de V. - Deseperar Jamais, +++
TTITLE1=Reunião de Bacanas, O Ouro e a Madeira, +++
TTITLE2=Samba Vem, Samba Vai, Homenagem ao Malandro, +++
TTITLE3=O Trem no Samba, Os Meninos da Mangueira, +++
TTITLE4=Enredo do Meu Samba, Poxa, Último Carnaval, +++
TTITLE5=Samba Maravilha, Que Maravilha, Que Pena, +++
TTITLE6=Samba na Avenida, Foi Um Rio que Passou em Minha Vida, +++
TTITLE7=Na Cadência do Samba, Não Deixa o Samba Morrer, +++
EXTD=
EXTT0=
EXTT1=
EXTT2=
EXTT3=
EXTT4=
EXTT5=
EXTT6=
EXTT7=
PLAYORDER=
